# xmcd CD database file
#
# Track frame offsets:
#	150
#	6838
#	20918
#	39575
#	57399
#	77384
#	93416
#	110633
#	133226
#	153419
#	176043
#	196091
#	221772
#	242876
#	263277
#
# Disc length: 3839 seconds
#
# Revision: 0
# Processed by: cddbd v1.5.1PL0 Copyright (c) Steve Scherf et al.
# Submitted via: CDex 1.51
#
DISCID=cb0efd0f
DTITLE=倖田來未 - secret
DYEAR=2005
DGENRE=JPop
TTITLE0=01 - Intro〜Get down〜
TTITLE1=02 - キューティーハニー
TTITLE2=03 - Hot Stuff feat.KM-MARKIT
TTITLE3=04 - Selfish
TTITLE4=05 - hands
TTITLE5=06 - Hearty・・・
TTITLE6=07 - SHAKE IT
TTITLE7=08 - 奇跡
TTITLE8=09 - Trust you
TTITLE9=10 - Chase
TTITLE10=11 - LOVE HOLIC
TTITLE11=12 - 24
TTITLE12=13 - Let's Party
TTITLE13=14 - Believe
TTITLE14=15 - Through the sky
EXTD=YEAR: 2005/02/09
EXTT0=
EXTT1=
EXTT2=
EXTT3=
EXTT4=
EXTT5=
EXTT6=
EXTT7=
EXTT8=
EXTT9=
EXTT10=
EXTT11=
EXTT12=
EXTT13=
EXTT14=
PLAYORDER=
